<svg width="678" height="672" fill="none" xmlns="http://www.w3.org/2000/svg"><g clip-path="url(#a)"><path opacity=".2" d="M338.994 542.578c113.973 0 206.367-92.488 206.367-206.578s-92.394-206.578-206.367-206.578c-113.974 0-206.368 92.488-206.368 206.578s92.394 206.578 206.368 206.578Z" stroke="#fff" stroke-width=".71" stroke-miterlimit="10"/><path opacity=".05" d="M338.994 672c187.221 0 338.993-150.432 338.993-336S526.215 0 338.994 0 0 150.432 0 336s151.773 336 338.994 336Z" fill="#fff"/><path d="M338.994 493.09c86.669 0 156.929-70.332 156.929-157.09 0-86.758-70.26-157.09-156.929-157.09-86.67 0-156.93 70.332-156.93 157.09 0 86.758 70.26 157.09 156.93 157.09Z" fill="#000"/><path d="M383.343 265.089v44.42h-88.839v-44.42h-20.622v141.81h20.622v-44.434h88.839v44.434h20.775v-141.81h-20.775Zm-88.839 82.25v-22.716h88.839v22.716h-88.839Z" fill="#fff"/></g><defs><clipPath id="a"><path fill="#fff" d="M0 0h678v672H0z"/></clipPath></defs></svg>